<?xml version="1.0" encoding="utf-8"?>
<!-- Generator: Adobe Illustrator 24.1.2, SVG Export Plug-In . SVG Version: 6.00 Build 0)  -->
<svg version="1.1" id="Capa_1" xmlns="http://www.w3.org/2000/svg" xmlns:xlink="http://www.w3.org/1999/xlink" x="0px" y="0px"
	 viewBox="0 0 15.3 15.3" style="enable-background:new 0 0 15.3 15.3;" xml:space="preserve">
<style type="text/css">
	.st0{fill:#0000FF;}
</style>
<g>
	<g>
		<path class="st0" d="M3.7,3.7h0.7c0.3,0,0.5-0.2,0.5-0.4v-3C4.8,0.2,4.6,0,4.4,0H3.7C3.4,0,3.2,0.2,3.2,0.4v3
			C3.2,3.5,3.4,3.7,3.7,3.7z"/>
		<path class="st0" d="M10.9,3.7h0.7c0.3,0,0.5-0.2,0.5-0.4v-3c0-0.2-0.2-0.4-0.5-0.4h-0.7c-0.3,0-0.5,0.2-0.5,0.4v3
			C10.5,3.5,10.7,3.7,10.9,3.7z"/>
		<path class="st0" d="M14.5,1.4h-1.8v2.3c0,0.5-0.5,0.9-1,0.9h-0.7c-0.6,0-1-0.4-1-0.9V1.4H5.4v2.3c0,0.5-0.5,0.9-1,0.9H3.7
			c-0.6,0-1-0.4-1-0.9V1.4H0.8C0.5,1.4,0.2,1.7,0.2,2v12.8c0,0.3,0.3,0.6,0.6,0.6h13.7c0.3,0,0.6-0.2,0.6-0.6V2
			C15.1,1.7,14.8,1.4,14.5,1.4z M14.3,9.5v4.3c0,0.1-0.1,0.2-0.2,0.2H7.5H1.2C1.1,14,1,13.9,1,13.8v-3.5V6c0-0.1,0.1-0.2,0.2-0.2
			h6.7h6.3l0,0c0.1,0,0.2,0.1,0.2,0.2C14.3,6,14.3,9.5,14.3,9.5z"/>
		<rect x="2.3" y="8.9" class="st0" width="1.7" height="1.7"/>
		<rect x="5.3" y="8.9" class="st0" width="1.7" height="1.7"/>
		<rect x="8.2" y="8.9" class="st0" width="1.7" height="1.7"/>
		<rect x="11.2" y="8.9" class="st0" width="1.7" height="1.7"/>
		<rect x="2.4" y="11.4" class="st0" width="1.7" height="1.7"/>
		<rect x="5.3" y="11.4" class="st0" width="1.7" height="1.7"/>
		<rect x="8.2" y="11.4" class="st0" width="1.7" height="1.7"/>
		<rect x="11.2" y="11.4" class="st0" width="1.7" height="1.7"/>
		<rect x="8.2" y="6.5" class="st0" width="1.7" height="1.7"/>
		<rect x="11.2" y="6.5" class="st0" width="1.7" height="1.7"/>
	</g>
</g>
</svg>
