<?xml version="1.0" encoding="utf-8"?>
<!-- Generator: Adobe Illustrator 24.1.2, SVG Export Plug-In . SVG Version: 6.00 Build 0)  -->
<svg version="1.1" id="Capa_1" xmlns="http://www.w3.org/2000/svg" xmlns:xlink="http://www.w3.org/1999/xlink" x="0px" y="0px"
	 viewBox="0 0 15.3 15.3" style="enable-background:new 0 0 15.3 15.3;" xml:space="preserve">
<style type="text/css">
	.st0{fill:#FFFFFF;}
	.st1{fill:#7D99FF;}
</style>
<path class="st0" d="M13.7,15.3h-12c-0.9,0-1.6-0.7-1.6-1.6v-12C0,0.7,0.7,0,1.6,0h12c0.9,0,1.6,0.7,1.6,1.6v12
	C15.3,14.6,14.6,15.3,13.7,15.3z"/>
<g>
	<g>
		<path class="st1" d="M4.2,4.1h0.6c0.3,0,0.4-0.2,0.4-0.3V1.2c0-0.1-0.2-0.3-0.4-0.3H4.2C4,0.9,3.8,1.1,3.8,1.2v2.6
			C3.8,3.9,4,4.1,4.2,4.1z"/>
		<path class="st1" d="M10.5,4.1h0.6c0.3,0,0.4-0.2,0.4-0.3V1.2c0-0.2-0.2-0.3-0.4-0.3h-0.6C10.2,0.8,10,1,10,1.2v2.6
			C10.1,3.9,10.3,4.1,10.5,4.1z"/>
		<path class="st1" d="M13.6,2.1H12v2c0,0.4-0.4,0.8-0.9,0.8h-0.6c-0.5,0-0.9-0.3-0.9-0.8v-2h-4v2c0,0.4-0.4,0.8-0.9,0.8H4.2
			c-0.5,0-0.9-0.3-0.9-0.8v-2H1.7c-0.3,0-0.5,0.3-0.5,0.5v11.1c0,0.3,0.3,0.5,0.5,0.5h11.9c0.3,0,0.5-0.2,0.5-0.5V2.6
			C14.1,2.4,13.9,2.1,13.6,2.1z M13.4,9.1v3.7c0,0.1-0.1,0.2-0.2,0.2H7.5H2c-0.1,0-0.2-0.1-0.2-0.2v-3V6.1C1.9,6,2,5.9,2,5.9h5.8
			h5.5l0,0c0.1,0,0.2,0.1,0.2,0.2C13.4,6.1,13.4,9.1,13.4,9.1z"/>
		<rect x="3" y="8.6" class="st1" width="1.5" height="1.5"/>
		<rect x="5.6" y="8.6" class="st1" width="1.5" height="1.5"/>
		<rect x="8.1" y="8.6" class="st1" width="1.5" height="1.5"/>
		<rect x="10.7" y="8.6" class="st1" width="1.5" height="1.5"/>
		<rect x="3.1" y="10.8" class="st1" width="1.5" height="1.5"/>
		<rect x="5.6" y="10.8" class="st1" width="1.5" height="1.5"/>
		<rect x="8.1" y="10.8" class="st1" width="1.5" height="1.5"/>
		<rect x="10.7" y="10.8" class="st1" width="1.5" height="1.5"/>
		<rect x="8.1" y="6.5" class="st1" width="1.5" height="1.5"/>
		<rect x="10.7" y="6.5" class="st1" width="1.5" height="1.5"/>
	</g>
</g>
</svg>
